HIERARCHY
ROOT Hips
{
	OFFSET -0.001795 -0.223333 0.028219
	CHANNELS 6 Xposition Yposition Zposition Zrotation Yrotation Xrotation 
	JOINT LeftUpLeg
	{
		OFFSET 0.069520 -0.091406 -0.006815
		CHANNELS 3 Zrotation Yrotation Xrotation
		JOINT LeftLeg
		{
			OFFSET 0.034277 -0.375199 -0.004496
			CHANNELS 3 Zrotation Yrotation Xrotation
			JOINT LeftFoot
			{
				OFFSET -0.013596 -0.397961 -0.043693
				CHANNELS 3 Zrotation Yrotation Xrotation
				JOINT LeftToe
				{
					OFFSET 0.026358 -0.055791 0.119288
					CHANNELS 3 Zrotation Yrotation Xrotation
					End Site
					{
						OFFSET 0.000000 0.000000 0.000000
					}
				}
			}
		}
	}
	JOINT RightUpLeg
	{
		OFFSET -0.067670 -0.090522 -0.004320
		CHANNELS 3 Zrotation Yrotation Xrotation
		JOINT RightLeg
		{
			OFFSET -0.038290 -0.382569 -0.008850
			CHANNELS 3 Zrotation Yrotation Xrotation
			JOINT RightFoot
			{
				OFFSET 0.015774 -0.398415 -0.042312
				CHANNELS 3 Zrotation Yrotation Xrotation
				JOINT RightToe
				{
					OFFSET -0.025372 -0.048144 0.123348
					CHANNELS 3 Zrotation Yrotation Xrotation
					End Site
					{
						OFFSET 0.000000 0.000000 0.000000
					}
				}
			}
		}
	}
	JOINT Spine
	{
		OFFSET -0.002533 0.108963 -0.026696
		CHANNELS 3 Zrotation Yrotation Xrotation
		JOINT Spine1
		{
			OFFSET 0.005487 0.135180 0.001092
			CHANNELS 3 Zrotation Yrotation Xrotation
			JOINT Spine2
			{
				OFFSET 0.001457 0.052922 0.025425
				CHANNELS 3 Zrotation Yrotation Xrotation
				JOINT Neck
				{
					OFFSET -0.002778 0.213870 -0.042857
					CHANNELS 3 Zrotation Yrotation Xrotation
					JOINT Head
					{
						OFFSET 0.005152 0.064970 0.051349
						CHANNELS 3 Zrotation Yrotation Xrotation
						End Site
						{
							OFFSET 0.000000 0.000000 0.000000
						}
					}
				}
				JOINT LeftShoulder
				{
					OFFSET 0.078845 0.121749 -0.034090
					CHANNELS 3 Zrotation Yrotation Xrotation
					JOINT LeftArm
					{
						OFFSET 0.090977 0.030469 -0.008868
						CHANNELS 3 Zrotation Yrotation Xrotation
						JOINT LeftForeArm
						{
							OFFSET 0.259612 -0.012772 -0.027456
							CHANNELS 3 Zrotation Yrotation Xrotation
							JOINT LeftHand
							{
								OFFSET 0.249234 0.008986 -0.001171
								CHANNELS 3 Zrotation Yrotation Xrotation
								End Site
								{
									OFFSET 0.000000 0.000000 0.000000
								}
							}
						}
					}
				}
				JOINT RightShoulder
				{
					OFFSET -0.081759 0.118833 -0.038615
					CHANNELS 3 Zrotation Yrotation Xrotation
					JOINT RightArm
					{
						OFFSET -0.096012 0.032551 -0.009143
						CHANNELS 3 Zrotation Yrotation Xrotation
						JOINT RightForeArm
						{
							OFFSET -0.253742 -0.013329 -0.021401
							CHANNELS 3 Zrotation Yrotation Xrotation
							JOINT RightHand
							{
								OFFSET -0.255298 0.007772 -0.005559
								CHANNELS 3 Zrotation Yrotation Xrotation
								End Site
								{
									OFFSET 0.000000 0.000000 0.000000
								}
							}
						}
					}
				}
			}
		}
	}
}
MOTION
Frames: 7
Frame Time: 0.050000
-0.516529 0.727316 -1.536414 0.434503 -0.391040 7.924250 9.719954 -0.376349 -66.805482 -2.120997 -0.778879 67.749942 -0.095371 -6.124013 -9.975256 0.000000 0.000000 0.000000 -4.680493 0.508910 -5.046817 2.624313 0.784851 57.845205 -7.204921 -12.832564 -29.260330 0.000000 0.000000 0.000000 -7.942008 0.550756 8.959435 -0.031452 0.027927 -0.433138 6.254549 1.388414 4.462076 -7.089872 5.237291 -19.330773 0.000000 0.000000 0.000000 -4.582521 -10.327327 3.642183 -20.350711 -50.507106 4.703248 116.431284 -26.026010 -36.282327 0.000000 0.000000 0.000000 19.549701 12.266736 4.992773 54.024623 6.090737 -2.420205 13.695876 83.223778 15.921370 0.000000 0.000000 0.000000 
-0.515206 0.726633 -1.537818 0.384636 -0.468078 8.065009 9.421688 -0.530347 -66.416319 -2.289014 -0.619566 67.779722 0.353698 -5.563424 -10.951813 0.000000 0.000000 0.000000 -5.865767 0.503820 -4.855614 3.390535 0.255317 57.914615 -6.914814 -12.071715 -26.723330 0.000000 0.000000 0.000000 -7.590460 0.483210 7.725246 -0.086527 0.059773 -0.673824 6.309374 1.088325 4.401793 -7.172484 5.269188 -18.405962 0.000000 0.000000 0.000000 -4.263479 -10.035909 3.552155 -23.473084 -50.565214 5.974848 117.180445 -28.223547 -39.691178 0.000000 0.000000 0.000000 18.661574 11.426147 4.386513 53.521482 3.886938 -3.339019 29.463142 82.495388 29.423464 0.000000 0.000000 0.000000 
-0.514328 0.725169 -1.540908 0.499914 -0.667270 7.979891 9.104514 -0.648254 -65.992167 -3.381047 0.344116 68.402680 1.202174 -3.575552 -11.619130 0.000000 0.000000 0.000000 -6.250337 0.506403 -4.849986 2.937060 0.667137 59.429863 -6.628096 -11.982824 -22.928267 0.000000 0.000000 0.000000 -7.885911 0.481721 6.552893 0.191390 -0.086418 -0.023137 6.339418 1.348786 4.404399 -7.608654 5.544979 -17.928898 0.000000 0.000000 0.000000 -4.445325 -9.442381 3.301120 -26.929316 -50.359173 7.277697 120.278249 -30.944299 -46.030850 0.000000 0.000000 0.000000 18.400009 10.404786 3.864043 53.067118 2.755415 -3.810222 37.415699 80.771708 35.518906 0.000000 0.000000 0.000000 
-0.514576 0.725755 -1.547962 0.868625 -0.547283 7.691649 8.363114 -1.150481 -65.320018 -3.263353 0.202482 67.802595 1.409884 -3.593602 -12.522285 0.000000 0.000000 0.000000 -7.640814 0.505620 -4.953435 3.497528 0.228504 61.598862 -5.931935 -10.942224 -17.260353 0.000000 0.000000 0.000000 -8.120440 0.475752 5.968736 0.066451 -0.011391 -0.643077 6.172292 1.221726 5.036712 -6.284219 4.812525 -17.814456 0.000000 0.000000 0.000000 -3.646002 -9.581972 3.353416 -30.662017 -50.345656 8.711347 121.822831 -32.137379 -49.015798 0.000000 0.000000 0.000000 17.007176 9.817461 3.549719 53.653107 1.423930 -4.501970 44.276677 80.469654 41.400843 0.000000 0.000000 0.000000 
-0.516629 0.726449 -1.560653 1.016356 -1.019153 7.359963 8.525725 -0.860788 -64.655015 -4.099350 1.017453 67.021986 1.725462 -2.383327 -12.153913 0.000000 0.000000 0.000000 -8.548539 0.530959 -5.845935 2.918083 0.946286 65.573294 -3.389152 -3.639032 -11.918203 0.000000 0.000000 0.000000 -8.977220 0.525707 5.418069 0.502358 -0.216330 -0.506644 5.968720 1.473477 5.173431 -5.520979 4.385793 -18.812077 0.000000 0.000000 0.000000 -3.547836 -9.104546 3.161246 -35.295919 -50.679224 10.672211 124.466424 -34.610231 -55.076040 0.000000 0.000000 0.000000 16.166250 9.463048 3.377677 53.464946 2.080340 -4.220649 51.606951 79.235407 47.009646 0.000000 0.000000 0.000000 
-0.521321 0.726996 -1.579991 1.493406 -0.948567 6.441194 8.004525 -1.193342 -63.738981 -4.308845 1.159747 66.505987 2.218876 -1.784065 -13.486676 0.000000 0.000000 0.000000 -9.772026 0.478068 -4.540787 3.267263 0.691047 67.111563 -2.141323 -1.827699 -7.753741 0.000000 0.000000 0.000000 -9.310499 0.529862 5.635728 -0.590028 0.311135 -1.639485 6.463319 0.290059 5.972248 -5.222464 4.106489 -19.448631 0.000000 0.000000 0.000000 -3.055380 -9.710668 3.477406 -37.767309 -50.244103 11.615187 125.855941 -35.915004 -57.578341 0.000000 0.000000 0.000000 12.723705 10.410258 3.584069 56.268834 1.588762 -4.761301 55.817713 78.566401 49.709843 0.000000 0.000000 0.000000 
-0.529023 0.727422 -1.606002 2.260209 -0.377112 5.364559 6.913621 -2.025445 -62.513666 -3.792950 0.555727 63.421040 2.302804 -0.216850 -11.300107 0.000000 0.000000 0.000000 -11.954085 0.441070 -2.779799 3.289767 0.476595 70.253772 -1.135781 -3.031848 0.304356 0.000000 0.000000 0.000000 -11.477013 0.691144 6.221891 1.200427 -0.484108 -2.008280 5.764952 -0.188079 6.279316 -5.550714 4.285383 -22.140618 0.000000 0.000000 0.000000 -3.535076 -9.660799 3.466387 -38.710491 -50.353475 12.011999 126.487438 -35.355757 -57.391804 0.000000 0.000000 0.000000 12.890409 10.773310 3.752794 55.529152 3.615471 -3.819784 64.217406 78.414430 57.123314 0.000000 0.000000 0.000000 
